<?xml version="1.0" encoding="UTF-8" standalone="no"?>
<svg
   style="height: 128px; width: 128px;"
   viewBox="0 0 512 512"
   version="1.1"
   id="svg1123"
   sodipodi:docname="d4.svg"
   inkscape:export-filename="d4.png"
   inkscape:export-xdpi="96"
   inkscape:export-ydpi="96"
   inkscape:version="1.2.2 (732a01da63, 2022-12-09)"
   xmlns:inkscape="http://www.inkscape.org/namespaces/inkscape"
   xmlns:sodipodi="http://sodipodi.sourceforge.net/DTD/sodipodi-0.dtd"
   xmlns="http://www.w3.org/2000/svg"
   xmlns:svg="http://www.w3.org/2000/svg">
  <defs
     id="defs1127" />
  <sodipodi:namedview
     id="namedview1125"
     pagecolor="#ffffff"
     bordercolor="#999999"
     borderopacity="1"
     inkscape:showpageshadow="0"
     inkscape:pageopacity="0"
     inkscape:pagecheckerboard="0"
     inkscape:deskcolor="#d1d1d1"
     showgrid="false"
     inkscape:zoom="1.9570312"
     inkscape:cx="145.88423"
     inkscape:cy="256"
     inkscape:window-width="3440"
     inkscape:window-height="1369"
     inkscape:window-x="1912"
     inkscape:window-y="229"
     inkscape:window-maximized="1"
     inkscape:current-layer="svg1123" />
  <g
     class=""
     transform="translate(0,-46)"
     id="g1121">
    <path
       d="m 235.11,196.24 17.074,-29.463 V 196.24 Z M 486.95,456 H 25.05 L 256,56 Z m -358.631,-54.833 41.212,-22.943 -6.702,-12.075 -59.699,33.303 5.458,9.805 a 11.278,11.278 0 0 1 2.645,-0.881 11.822,11.822 0 0 1 5.566,-0.085 12.534,12.534 0 0 1 6.34,4.01 59.3,59.3 0 0 1 5.071,7.353 l 7.994,-4.456 z M 273.074,196.24 h -7.74 V 153.506 H 250.24 l -25.14,41.515 v 11.749 h 27.072 v 14.72 h 13.162 v -14.72 h 7.74 v -10.518 z m 131.619,212.45 q 6.822,-11.93 0.616,-21.735 -3.26,-5.132 -10.675,-9.745 l -6.484,11.338 a 22.677,22.677 0 0 1 6.533,5.483 q 2.873,4.19 -0.17,9.515 a 8.453,8.453 0 0 1 -5.916,4.552 10.868,10.868 0 0 1 -7.463,-1.497 14.08,14.08 0 0 1 -6.436,-8.513 99.728,99.728 0 0 1 -2.294,-15.167 q -1.316,-13.089 -5.82,-18.982 a 32.144,32.144 0 0 0 -10.095,-9.418 l -23.28,40.705 10.275,5.88 14.828,-25.913 a 15.203,15.203 0 0 1 1.679,4.577 q 0.47,2.415 1.062,8.585 l 0.64,6.57 a 45.149,45.149 0 0 0 2.717,12.823 21.518,21.518 0 0 0 9.455,10.638 q 8.598,4.915 17.002,2.33 8.404,-2.584 13.814,-12.014 z"
       fill="#000000"
       fill-opacity="1"
       id="path1119"
       style="fill:#c4cdd4;fill-opacity:1" />
  </g>
</svg>
