<?xml version="1.0" encoding="UTF-8" standalone="no"?>
<!-- Created with Inkscape (http://www.inkscape.org/) -->

<svg
   width="64"
   height="64"
   viewBox="0 0 64 64"
   version="1.1"
   id="svg5"
   inkscape:version="1.2.2 (732a01da63, 2022-12-09)"
   sodipodi:docname="gear-v2.svg"
   xmlns:inkscape="http://www.inkscape.org/namespaces/inkscape"
   xmlns:sodipodi="http://sodipodi.sourceforge.net/DTD/sodipodi-0.dtd"
   xmlns="http://www.w3.org/2000/svg"
   xmlns:svg="http://www.w3.org/2000/svg">
  <sodipodi:namedview
     id="namedview7"
     pagecolor="#ffffff"
     bordercolor="#999999"
     borderopacity="1"
     inkscape:showpageshadow="0"
     inkscape:pageopacity="0"
     inkscape:pagecheckerboard="0"
     inkscape:deskcolor="#d1d1d1"
     inkscape:document-units="px"
     showgrid="true"
     inkscape:zoom="10.099009"
     inkscape:cx="68.571087"
     inkscape:cy="34.953926"
     inkscape:window-width="3440"
     inkscape:window-height="1377"
     inkscape:window-x="1912"
     inkscape:window-y="229"
     inkscape:window-maximized="1"
     inkscape:current-layer="layer1">
    <inkscape:grid
       type="xygrid"
       id="grid744"
       empspacing="8"
       spacingx="1"
       spacingy="1"
       originx="0"
       originy="0"
       enabled="true" />
  </sodipodi:namedview>
  <defs
     id="defs2" />
  <g
     inkscape:label="Layer 1"
     inkscape:groupmode="layer"
     id="layer1">
    <path
       id="path1047"
       style="vector-effect:non-scaling-stroke;fill:#000000;stroke:#000000;stroke-linecap:round;-inkscape-stroke:hairline;fill-opacity:1"
       inkscape:transform-center-x="5.1277008"
       inkscape:transform-center-y="-25.538249"
       d="M 25.412109 1.7089844 C 22.68396 2.3023111 20.047513 3.2596286 17.576172 4.5585938 L 20 11.214844 C 17.575835 12.614432 15.414645 14.428058 13.615234 16.572266 L 7.4824219 13.029297 C 5.7739206 15.237433 4.3706984 17.666388 3.3125 20.25 L 9.4472656 23.791016 C 8.4898859 26.421386 8.0001572 29.19885 8 31.998047 L 1.0234375 33.228516 C 1.1340116 36.018249 1.6225697 38.780095 2.4726562 41.439453 L 9.4472656 40.208984 C 10.40464 42.839357 11.814113 45.281371 13.613281 47.425781 L 9.0605469 52.851562 C 10.938457 54.917546 13.086659 56.720176 15.447266 58.210938 L 20 52.785156 C 22.424162 54.18475 25.075388 55.148536 27.832031 55.634766 L 27.830078 62.71875 C 30.59663 63.094288 33.401396 63.094129 36.167969 62.71875 L 36.167969 55.634766 C 38.924626 55.148696 41.573794 54.184619 43.998047 52.785156 L 48.550781 58.210938 C 50.911474 56.72031 53.059471 54.919392 54.9375 52.853516 L 50.384766 47.427734 C 52.184048 45.283439 53.595207 42.839315 54.552734 40.208984 L 61.527344 41.441406 C 62.377582 38.782096 62.865828 36.020195 62.976562 33.230469 L 56 32 C 56.000003 29.200819 55.509969 26.423406 54.552734 23.792969 L 60.6875 20.251953 C 59.629448 17.668281 58.227905 15.239484 56.519531 13.03125 L 50.384766 16.572266 C 48.585489 14.427967 46.426051 12.616529 44.001953 11.216797 L 46.423828 4.5605469 C 43.952561 3.2614419 41.317959 2.3024685 38.589844 1.7089844 L 36.167969 8.3652344 C 33.411313 7.8791566 30.590683 7.8793145 27.833984 8.3652344 L 25.412109 1.7089844 z M 32 24 A 8 8 0 0 1 40 32 A 8 8 0 0 1 32 40 A 8 8 0 0 1 24 32 A 8 8 0 0 1 32 24 z " />
  </g>
</svg>
